PathFileType	4	(X/Y/Z)	25_coords_data.trc
DataRate	CameraRate	NumFrames	NumMarkers	Units	OrigDataRate	OrigDataStartFrame	OrigNumFrames
30.0	30.0	9	21	m	30.0	22	65
Frame#	Time	THUMB_TIP	THUMB_IP	THUMB_MCP	THUMB_CMC	INDEX_TIP	INDEX_DIP	INDEX_PIP	INDEX_MCP	MIDDLE_TIP	MIDDLE_DIP	MIDDLE_PIP	MIDDLE_MCP	RING_TIP	RING_DIP	RING_PIP	RING_MCP	PINKY_TIP	PINKY_DIP	PINKY_PIP	PINKY_MCP	WRIST
X1	Y1	Z1	X2	Y2	Z2	X3	Y3	Z3	X4	Y4	Z4	X5	Y5	Z5	X6	Y6	Z6	X7	Y7	Z7	X8	Y8	Z8	X9	Y9	Z9	X10	Y10	Z10	X11	Y11	Z11	X12	Y12	Z12	X13	Y13	Z13	X14	Y14	Z14	X15	Y15	Z15	X16	Y16	Z16	X17	Y17	Z17	X18	Y18	Z18	X19	Y19	Z19	X20	Y20	Z20	X21	Y21	Z21
21	0.7	-0.02900239944458008	-0.08639530181884765	0.8935150146484375	-0.0312996997833252	-0.06235580062866211	0.9105130004882812	-0.03821379852294922	-0.03739590072631836	0.9314190063476563	-0.04853450012207031	-0.006344950199127198	0.9508560180664063	-0.003662990093231201	-0.02098979949951172	0.8091959838867188	-0.007897200107574463	-0.01673200035095215	0.83318701171875	-0.015496899604797363	-0.011957099914550781	0.8548170166015625	-0.0314015998840332	-0.002636759996414184	0.8925999755859375	-0.006487319946289063	0.039189498901367185	0.8006710205078125	-0.009722390174865723	0.03184720039367676	0.8257990112304687	-0.018041900634765625	0.02578890037536621	0.8521649780273437	-0.036204200744628906	0.02001490020751953	0.8913499755859375	-0.00185502004623413	0.076306396484375	0.8229130249023437	-0.00912827968597412	0.0655613021850586	0.844489013671875	-0.01937660026550293	0.05458380126953125	0.866468994140625	-0.03449039840698242	0.03916550064086914	0.8985150146484375	-0.01481999969482422	0.10392800140380859	0.8648469848632813	-0.017944900512695313	0.08905410003662109	0.8798499755859375	-0.022855600357055663	0.07582240295410156	0.8917459716796875	-0.03341080093383789	0.054524101257324216	0.9105260009765626	-0.07865329742431641	0.01791279983520508	0.9721409912109376
22	0.7333333333333333	-0.029149999618530275	-0.08655549621582032	0.8933469848632812	-0.03145829963684082	-0.06250590133666992	0.9104340209960937	-0.038473201751708985	-0.03749850082397461	0.9313770141601563	-0.048706199645996096	-0.0065896701812744145	0.9508829956054687	-0.003262530088424682	-0.021109899520874022	0.8094879760742187	-0.007599790096282959	-0.01692530059814453	0.8332540283203125	-0.01526200008392334	-0.012122599601745606	0.8549760131835937	-0.03123699951171875	-0.002797460079193115	0.8926920166015625	-0.006071340084075927	0.0390447998046875	0.8008150024414062	-0.009355440139770507	0.03167749977111817	0.82597998046875	-0.017800399780273438	0.02558769989013672	0.8522559814453124	-0.03619100189208985	0.019857200622558593	0.8914979858398437	-0.0013718600273132319	0.07607119750976563	0.823198974609375	-0.008720820426940917	0.06534500122070312	0.8447509765625	-0.01923480033874512	0.05433819961547852	0.8666129760742187	-0.03456010055541992	0.03896390151977539	0.8988060302734375	-0.014551799774169922	0.103572998046875	0.8649080200195313	-0.017684400558471678	0.08875240325927734	0.8799110107421875	-0.02264349937438965	0.07554129791259766	0.89189697265625	-0.03327140045166015	0.05431000137329101	0.9106959838867188	-0.07877890014648438	0.017847000122070314	0.9722890014648438
23	0.7666666666666667	-0.028371700286865233	-0.08650559997558593	0.8934940185546875	-0.03087649917602539	-0.06247050094604492	0.9105419921875	-0.0380093994140625	-0.03750510025024414	0.931458984375	-0.04848799896240234	-0.006646430015563965	0.9509619750976562	-0.003568939924240112	-0.021287900924682617	0.8092479858398437	-0.007959320068359374	-0.016823999404907225	0.8336480102539062	-0.015433300018310546	-0.012133999824523926	0.8549290161132812	-0.03128919982910156	-0.002830470085144043	0.8927670288085937	-0.006857069969177246	0.03880839920043945	0.8005440063476562	-0.009964509963989258	0.031528099060058594	0.8257459716796876	-0.018182600021362304	0.02540489959716797	0.8515869750976562	-0.03622969818115234	0.01975790023803711	0.8913889770507812	-0.002378190040588379	0.07601789855957031	0.8227340087890626	-0.009574999809265137	0.06526950073242188	0.84452197265625	-0.019740400314331056	0.054297901153564455	0.8663359985351563	-0.03477299880981445	0.038861400604248045	0.8987080078125	-0.015410300254821777	0.10355599975585937	0.8645440063476563	-0.01847170066833496	0.0887593994140625	0.8795969848632812	-0.023225299835205077	0.07552189636230469	0.8916699829101562	-0.033611099243164064	0.05426760101318359	0.9105789794921875	-0.07858599853515626	0.017632799148559572	0.9723040161132812
24	0.8	-0.02874440002441406	-0.08663490295410156	0.8936229858398438	-0.031149099349975586	-0.06258340072631836	0.9106510009765625	-0.03826649856567383	-0.037558601379394534	0.931551025390625	-0.04854579925537109	-0.006641180038452149	0.9509539794921875	-0.0037077701091766347	-0.021462600708007814	0.8093040161132813	-0.007897359848022461	-0.017090999603271484	0.8332589721679687	-0.015545599937438965	-0.012283200263977051	0.8549760131835937	-0.03144059944152832	-0.002953229904174804	0.8928099975585938	-0.006587170124053955	0.038461799621582034	0.800594970703125	-0.00982625961303711	0.03127949905395508	0.82581298828125	-0.018163299560546874	0.02523780059814453	0.8516530151367188	-0.03636420059204101	0.019687700271606445	0.891510009765625	-0.001864879965782165	0.07578379821777344	0.8229509887695312	-0.009118570327758788	0.06511750030517578	0.8445859985351563	-0.019456600189208983	0.054193000793457034	0.866552001953125	-0.03469699859619141	0.03876919937133789	0.8985460205078125	-0.014819700241088868	0.10341999816894532	0.8647760009765625	-0.01795229911804199	0.08857080078125	0.8798419799804688	-0.022878999710083007	0.07536009979248047	0.891822998046875	-0.03349969863891602	0.05409930038452149	0.9105980224609375	-0.07872850036621094	0.017649900436401366	0.9723049926757813
25	0.8333333333333334	-0.028481100082397463	-0.08660900115966796	0.8936370239257813	-0.031014299392700194	-0.06255879974365235	0.9107059936523437	-0.03818899917602539	-0.03759080123901367	0.931677978515625	-0.048638099670410155	-0.006702060222625732	0.9510469970703125	-0.003432539939880371	-0.02136400032043457	0.80952197265625	-0.007773670196533203	-0.017023399353027345	0.8334299926757812	-0.015442700386047363	-0.012255999565124511	0.8551099853515625	-0.031289800643920895	-0.002996939897537231	0.8928900146484375	-0.0064338197708129884	0.03842190170288086	0.8008109741210937	-0.009730890274047851	0.031222900390625	0.8259169921875	-0.018170799255371094	0.025144599914550782	0.8518400268554688	-0.03630929946899414	0.019679500579833985	0.8915449829101563	-0.0020537600517272947	0.07571070098876953	0.822958984375	-0.009357250213623047	0.06502760314941407	0.8446820068359375	-0.019619899749755858	0.054118301391601564	0.8665189819335938	-0.034924198150634765	0.03879499816894531	0.89877197265625	-0.015117199897766113	0.10337200164794921	0.8648389892578126	-0.01821590042114258	0.08853040313720703	0.87989697265625	-0.023099899291992188	0.07534629821777344	0.8918889770507813	-0.033634899139404296	0.054134300231933594	0.9106690063476562	-0.07863829803466797	0.017515499114990233	0.9720689697265625
26	0.8666666666666667	-0.02806329917907715	-0.08651599884033204	0.8937570190429688	-0.030718500137329102	-0.06247579956054688	0.9107880249023438	-0.037998798370361325	-0.03745750045776367	0.9317160034179688	-0.048564300537109376	-0.006648429870605469	0.9511170043945313	-0.0036415700912475583	-0.021236400604248046	0.8095280151367188	-0.007864099979400635	-0.016880699157714844	0.8334569702148438	-0.015579700469970703	-0.012146599769592285	0.85510302734375	-0.03152230072021484	-0.002969810009002685	0.8928790283203125	-0.006963419914245606	0.038309398651123046	0.8006010131835938	-0.010164699554443359	0.031177400588989258	0.8258989868164063	-0.018501800537109377	0.025187299728393554	0.8517360229492188	-0.03649039840698242	0.019739599227905275	0.891594970703125	-0.002592910051345825	0.07566290283203125	0.8227739868164062	-0.00979104995727539	0.06502149963378906	0.8444010009765625	-0.020055599212646484	0.05414170074462891	0.8663920288085938	-0.035100799560546875	0.038848098754882814	0.8986959838867188	-0.015611300468444824	0.10348899841308594	0.8647230224609375	-0.01866670036315918	0.08865360260009765	0.8797540283203125	-0.02350359916687012	0.07543489837646485	0.8918040161132812	-0.03382659912109375	0.05418450164794922	0.9106640014648437	-0.0787157974243164	0.01756730079650879	0.972385009765625
27	0.9	-0.028420799255371092	-0.08658650207519532	0.894052001953125	-0.031063100814819337	-0.06251219940185547	0.9110089721679687	-0.03828350067138672	-0.03744570159912109	0.9319349975585938	-0.0487848014831543	-0.006549429893493652	0.951260986328125	-0.0038640398979187013	-0.02126289939880371	0.8094669799804688	-0.008131489753723145	-0.016965200424194336	0.8335120239257813	-0.015832799911499024	-0.012209500312805176	0.855197021484375	-0.03172459983825684	-0.002998840093612671	0.893051025390625	-0.007053800106048584	0.0381609992980957	0.8006439819335938	-0.0103548002243042	0.03107900047302246	0.8259459838867188	-0.018660400390625	0.025171300888061524	0.851916015625	-0.03678110122680664	0.01966580009460449	0.8917449951171875	-0.0025995099544525143	0.07544850158691406	0.8228300170898437	-0.00993037986755371	0.06484539794921874	0.844614990234375	-0.02013450050354004	0.054016201019287106	0.8665889892578125	-0.035182098388671874	0.03880630111694336	0.898885986328125	-0.015607000350952149	0.10337100219726562	0.86464697265625	-0.01872830009460449	0.08856729888916015	0.8797319946289063	-0.023624399185180663	0.07537899780273437	0.89185302734375	-0.03401169967651367	0.054204898834228514	0.9107550048828125	-0.07878610229492188	0.01759429931640625	0.9724000244140625
28	0.9333333333333333	-0.028121000289916993	-0.08640480041503906	0.8939860229492187	-0.030899999618530273	-0.06233700180053711	0.9109719848632812	-0.038341300964355465	-0.03734439849853516	0.9318619995117188	-0.04888779830932617	-0.006574140071868896	0.9511950073242188	-0.003591850042343139	-0.020646799087524415	0.809655029296875	-0.007923830032348632	-0.016505500793457032	0.8336339721679688	-0.015705400466918946	-0.011887800216674805	0.8553159790039062	-0.031749300003051754	-0.002858890056610107	0.893166015625	-0.006723130226135254	0.03861069869995117	0.801052001953125	-0.010141799926757813	0.03142189979553223	0.8261929931640625	-0.01865660095214844	0.02540060043334961	0.8524329833984375	-0.03690499877929688	0.019788999557495118	0.8915850219726562	-0.002537739992141723	0.07555490112304687	0.8229959716796875	-0.009957819938659669	0.06498819732666015	0.84468798828125	-0.020295499801635742	0.054098201751708985	0.8666389770507813	-0.03536709976196289	0.03896080017089844	0.8988880004882812	-0.015974499702453612	0.1034229965209961	0.8645050048828125	-0.01914539909362793	0.08867109680175782	0.879676025390625	-0.02396500015258789	0.07552269744873047	0.8918109741210938	-0.03428730010986328	0.05433010101318359	0.9107490234375	-0.07893979644775391	0.01747960090637207	0.9723070068359375
29	0.9666666666666667	-0.027986600875854493	-0.08622969818115235	0.894083984375	-0.030834699630737306	-0.06218769836425781	0.9110490112304688	-0.03825469970703125	-0.037172500610351565	0.9319810180664062	-0.04893130111694336	-0.006374969959259034	0.951322998046875	-0.003911269903182983	-0.02027149963378906	0.8093309936523437	-0.008256070137023926	-0.016125099182128906	0.833968017578125	-0.015925000190734864	-0.011608699798583984	0.8552470092773438	-0.03191729927062988	-0.002728889942169189	0.8932100219726562	-0.0069393301010131836	0.038198299407958984	0.8008270263671875	-0.01044890022277832	0.031188400268554687	0.8260770263671875	-0.018999300003051757	0.025326099395751953	0.8523920288085938	-0.037069499969482424	0.019894199371337892	0.89164697265625	-0.002939949989318847	0.07530449676513672	0.82264501953125	-0.010379199981689452	0.0648281021118164	0.8444990234375	-0.020629100799560547	0.05407789993286133	0.8665250244140625	-0.03590010070800781	0.03902560043334961	0.8989030151367188	-0.016409000396728515	0.10321399688720703	0.8641090087890625	-0.019467199325561523	0.08860810089111328	0.8793189697265625	-0.024372900009155273	0.07553299713134766	0.8914110107421875	-0.03467789840698242	0.05449700164794922	0.9106199951171875	-0.07904859924316407	0.017687299728393554	0.9725330200195312
